<svg xmlns="http://www.w3.org/2000/svg" viewBox="0 0 512 512">
  <rect width="512" height="512" rx="112" fill="#171714"/>
  <path d="M110 138c27 126 111 205 216 199 37-2 68-17 91-44-18 76-83 126-170 126C139 419 70 339 68 228c0-42 14-75 42-90Z" fill="#F7CF37"/>
  <path d="M104 136c17-31 42-50 72-56 7 22 4 44-9 65-23-7-43-10-63-9Z" fill="#6D5A14"/>
  <path d="M138 167c37 86 102 135 194 132" fill="none" stroke="#9A7B0F" stroke-width="18" stroke-linecap="round"/>
  <path d="M264 286h101" stroke="#FFF8D8" stroke-width="18" stroke-linecap="round"/>
  <path d="M321 238l44 48-44 48" fill="none" stroke="#FFF8D8" stroke-width="18" stroke-linecap="round" stroke-linejoin="round"/>
</svg>
